<?xml version="1.0" encoding="utf-8"?>
<svg width="28px" height="68px" viewbox="0 0 28 68" version="1.1" xmlns:xlink="http://www.w3.org/1999/xlink" xmlns="http://www.w3.org/2000/svg">
  <g id="Logo">
    <g id="C" fill="#000000" transform="translate(12 32)">
      <path d="M8.1 28.74Q6.06 28.74 4.5 27.93Q2.94 27.12 2.085 25.62Q1.23 24.12 1.23 22.14L1.23 13.8Q1.23 11.85 2.085 10.365Q2.94 8.88 4.5 8.07Q6.06 7.26 8.1 7.26Q10.14 7.26 11.7 8.055Q13.26 8.85 14.115 10.29Q14.97 11.73 14.97 13.65L14.97 13.8Q14.97 13.95 14.865 14.07Q14.76 14.19 14.61 14.19L11.1 14.34Q10.74 14.34 10.74 14.01L10.74 13.62Q10.74 12.39 10.02 11.64Q9.3 10.89 8.1 10.89Q6.9 10.89 6.18 11.64Q5.46 12.39 5.46 13.62L5.46 22.41Q5.46 23.64 6.18 24.375Q6.9 25.11 8.1 25.11Q9.3 25.11 10.02 24.375Q10.74 23.64 10.74 22.41L10.74 22.02Q10.74 21.69 11.1 21.69L14.61 21.84Q14.76 21.84 14.865 21.945Q14.97 22.05 14.97 22.2L14.97 22.29Q14.97 24.21 14.115 25.68Q13.26 27.15 11.7 27.945Q10.14 28.74 8.1 28.74Z" />
    </g>
    <g id="C" fill="#000000" transform="translate(12 0)">
      <path d="M8.1 28.74Q6.06 28.74 4.5 27.93Q2.94 27.12 2.085 25.62Q1.23 24.12 1.23 22.14L1.23 13.8Q1.23 11.85 2.085 10.365Q2.94 8.88 4.5 8.07Q6.06 7.26 8.1 7.26Q10.14 7.26 11.7 8.055Q13.26 8.85 14.115 10.29Q14.97 11.73 14.97 13.65L14.97 13.8Q14.97 13.95 14.865 14.07Q14.76 14.19 14.61 14.19L11.1 14.34Q10.74 14.34 10.74 14.01L10.74 13.62Q10.74 12.39 10.02 11.64Q9.3 10.89 8.1 10.89Q6.9 10.89 6.18 11.64Q5.46 12.39 5.46 13.62L5.46 22.41Q5.46 23.64 6.18 24.375Q6.9 25.11 8.1 25.11Q9.3 25.11 10.02 24.375Q10.74 23.64 10.74 22.41L10.74 22.02Q10.74 21.69 11.1 21.69L14.61 21.84Q14.76 21.84 14.865 21.945Q14.97 22.05 14.97 22.2L14.97 22.29Q14.97 24.21 14.115 25.68Q13.26 27.15 11.7 27.945Q10.14 28.74 8.1 28.74Z" />
    </g>
    <g id="D" fill="#000000" transform="translate(0 16.029785)">
      <path d="M1.95 28.5C1.85 28.5 1.765 28.465 1.695 28.395Q1.59 28.29 1.59 28.14L1.59 7.86Q1.59 7.71 1.695 7.605Q1.8 7.5 1.95 7.5L8.4 7.5Q10.41 7.5 11.955 8.25Q13.5 9 14.34 10.38Q15.18 11.76 15.18 13.59L15.18 22.41Q15.18 24.24 14.34 25.62Q13.5 27 11.955 27.75C10.925 28.25 9.74 28.5 8.4 28.5L1.95 28.5ZM5.82 24.72Q5.82 24.87 5.97 24.87L8.43 24.84Q9.54 24.84 10.23 24.045Q10.92 23.25 10.95 21.93L10.95 14.07Q10.95 12.72 10.26 11.925Q9.57 11.13 8.43 11.13L5.97 11.13Q5.82 11.13 5.82 11.28L5.82 24.72Z" />
    </g>
  </g>
</svg>